<?xml version="1.0" encoding="utf-8"?>
<svg viewBox="203.833 123.758 175.366 193.178" xmlns="http://www.w3.org/2000/svg">
  <g transform="matrix(1, 0, 0, 1, 167.73150634765625, 115.56097412109376)">
    <title>Layer 1</title>
    <g id="svg_1">
      <g id="svg_2">
        <g id="svg_3">
          <path class="st0" d="m248.32,114.48c1.82,2.3 2.74,4.95 2.74,7.92c0,2.69 -0.66,5.05 -1.98,7.09c-1.32,2.04 -3.23,3.64 -5.72,4.79c-2.5,1.15 -5.45,1.73 -8.86,1.73l-21.67,0l0,-50.26l20.74,0c3.41,0 6.35,0.55 8.82,1.66c2.47,1.11 4.34,2.64 5.62,4.61c1.27,1.97 1.91,4.2 1.91,6.7c0,2.93 -0.78,5.38 -2.34,7.34c-1.56,1.97 -3.64,3.36 -6.23,4.18c2.82,0.52 5.14,1.93 6.97,4.24zm-25.42,-8l9.22,0c2.4,0 4.25,-0.54 5.54,-1.62s1.94,-2.63 1.94,-4.64s-0.65,-3.58 -1.94,-4.68c-1.3,-1.1 -3.14,-1.66 -5.54,-1.66l-9.22,0l0,12.6zm15.88,19.59c1.37,-1.15 2.05,-2.78 2.05,-4.9c0,-2.16 -0.72,-3.85 -2.16,-5.08c-1.44,-1.22 -3.38,-1.84 -5.83,-1.84l-9.94,0l0,13.54l10.15,0c2.45,0.01 4.36,-0.57 5.73,-1.72z" fill="#000000" id="svg_4"/>
          <path class="st0" d="m266.46,134.1c-3.07,-1.7 -5.48,-4.12 -7.24,-7.24c-1.75,-3.12 -2.63,-6.72 -2.63,-10.8c0,-4.08 0.9,-7.68 2.7,-10.8c1.8,-3.12 4.26,-5.53 7.38,-7.24c3.12,-1.7 6.6,-2.56 10.44,-2.56s7.32,0.85 10.44,2.56c3.12,1.7 5.58,4.12 7.38,7.24c1.8,3.12 2.7,6.72 2.7,10.8c0,4.08 -0.92,7.68 -2.77,10.8s-4.34,5.53 -7.49,7.24c-3.14,1.7 -6.66,2.56 -10.55,2.56c-3.83,-0.01 -7.29,-0.86 -10.36,-2.56zm15.52,-7.56c1.61,-0.89 2.89,-2.22 3.85,-4c0.96,-1.78 1.44,-3.94 1.44,-6.48c0,-3.79 -1,-6.71 -2.99,-8.75c-1.99,-2.04 -4.43,-3.06 -7.31,-3.06s-5.29,1.02 -7.24,3.06c-1.94,2.04 -2.92,4.96 -2.92,8.75c0,3.79 0.95,6.71 2.84,8.75c1.9,2.04 4.28,3.06 7.16,3.06c1.84,0 3.56,-0.44 5.17,-1.33z" fill="#000000" id="svg_5"/>
          <path class="st0" d="m316.79,104.4l0,19.3c0,1.34 0.32,2.32 0.97,2.92c0.65,0.6 1.74,0.9 3.28,0.9l4.68,0l0,8.5l-6.34,0c-8.5,0 -12.74,-4.13 -12.74,-12.38l0,-19.24l-4.75,0l0,-8.28l4.75,0l0,-9.86l10.15,0l0,9.86l8.93,0l0,8.28l-8.93,0z" fill="#000000" id="svg_6"/>
          <path class="st0" d="m332.81,105.19c1.61,-3.12 3.79,-5.52 6.55,-7.2c2.76,-1.68 5.84,-2.52 9.25,-2.52c2.98,0 5.58,0.6 7.81,1.8c2.23,1.2 4.02,2.71 5.36,4.54l0,-5.69l10.15,0l0,39.88l-10.15,0l0,-5.83c-1.3,1.87 -3.08,3.42 -5.36,4.64c-2.28,1.22 -4.91,1.84 -7.88,1.84c-3.36,0 -6.42,-0.86 -9.18,-2.59c-2.76,-1.73 -4.94,-4.16 -6.55,-7.31c-1.61,-3.14 -2.41,-6.76 -2.41,-10.84c0,-4.03 0.8,-7.6 2.41,-10.72zm27.54,4.57c-0.96,-1.75 -2.26,-3.1 -3.89,-4.03c-1.63,-0.94 -3.38,-1.4 -5.26,-1.4s-3.6,0.46 -5.18,1.37s-2.87,2.24 -3.85,4c-0.98,1.75 -1.48,3.83 -1.48,6.23c0,2.4 0.49,4.5 1.48,6.3c0.98,1.8 2.28,3.18 3.89,4.14c1.61,0.96 3.32,1.44 5.15,1.44c1.87,0 3.62,-0.47 5.26,-1.4c1.63,-0.94 2.93,-2.28 3.89,-4.03c0.96,-1.75 1.44,-3.85 1.44,-6.3c-0.01,-2.47 -0.49,-4.57 -1.45,-6.32z" fill="#000000" id="svg_7"/>
          <path class="st0" d="m415.43,100.04c2.93,3 4.39,7.19 4.39,12.56l0,23.4l-10.08,0l0,-22.03c0,-3.17 -0.79,-5.6 -2.38,-7.31s-3.74,-2.56 -6.48,-2.56c-2.78,0 -4.98,0.85 -6.59,2.56c-1.61,1.7 -2.41,4.14 -2.41,7.31l0,22.03l-10.08,0l0,-39.88l10.08,0l0,4.97c1.34,-1.73 3.06,-3.08 5.15,-4.07s4.38,-1.48 6.88,-1.48c4.75,0 8.59,1.5 11.52,4.5z" fill="#000000" id="svg_8"/>
          <path class="st0" d="m439.47,96.12l0,39.88l-10.08,0l0,-39.88l10.08,0z" fill="#000000" id="svg_9"/>
          <path class="st0" d="m471.44,136l-8.21,-12.38l-7.27,12.38l-10.8,0l13.03,-20.02l-13.18,-19.87l11.38,0l8.14,12.31l7.34,-12.31l10.8,0l-13.1,19.87l13.25,20.02l-11.38,0z" fill="#000000" id="svg_10"/>
        </g>
        <path class="st0" d="m430.08,89.67c-1.18,-1.13 -1.76,-2.53 -1.76,-4.21c0,-1.68 0.59,-3.08 1.76,-4.21c1.18,-1.13 2.65,-1.69 4.43,-1.69c1.78,0 3.25,0.56 4.43,1.69c1.18,1.13 1.76,2.53 1.76,4.21c0,1.68 -0.59,3.08 -1.76,4.21c-1.18,1.13 -2.65,1.69 -4.43,1.69c-1.78,0 -3.26,-0.56 -4.43,-1.69z" fill="#000000" id="svg_11"/>
      </g>
      <g id="svg_12">
        <g id="svg_13">
          <path class="st0" d="m189.48,64.96l-16.44,23.25c-0.47,0.66 -1.2,1.1 -2.01,1.21l-24.75,3.21l0,-3.28l16.69,-16.69c1.78,-1.79 2.77,-4.16 2.77,-6.68l0,-30.66l-6.53,0l0,30.66c0,0.78 -0.3,1.51 -0.85,2.06l-12.07,12.07l0,-0.66c0,-5.65 -4.6,-10.25 -10.25,-10.25l-15.68,0c-5.65,0 -10.25,4.6 -10.25,10.25l0,0.66l-12.08,-12.07c-0.55,-0.55 -0.85,-1.28 -0.85,-2.06l0,-30.66l-6.53,0l0,30.66c0,2.52 0.98,4.9 2.77,6.68l16.69,16.69l0,3.28l-24.75,-3.21c-0.81,-0.1 -1.54,-0.55 -2.01,-1.21l-16.45,-23.25l-5.33,3.77l16.44,23.25c1.52,2.15 3.89,3.58 6.5,3.91l25.59,3.32l0,3.28c0,5.65 4.6,10.25 10.25,10.25l15.68,0c5.65,0 10.25,-4.6 10.25,-10.25l0,-3.28l25.59,-3.32c2.61,-0.34 4.98,-1.77 6.5,-3.91l16.44,-23.25l-5.33,-3.77zm-49.72,37.54c0,2.05 -1.67,3.72 -3.72,3.72l-15.68,0c-2.05,0 -3.72,-1.67 -3.72,-3.72l0,-23.05c0,-2.05 1.67,-3.72 3.72,-3.72l15.68,0c2.05,0 3.72,1.67 3.72,3.72l0,23.05z" fill="#000000" id="svg_14"/>
        </g>
        <path class="st0" d="m178.08,128.05c-1.02,-2.43 -3.03,-4.33 -5.51,-5.22l-24.28,-8.73l0.7,-3.21c1.21,-5.52 -2.29,-11 -7.81,-12.21l-15.32,-3.37c-5.52,-1.21 -11,2.29 -12.21,7.81l-0.7,3.21l-25.71,-2.25c-2.62,-0.23 -5.24,0.66 -7.19,2.43l-21.05,19.18l4.4,4.83l21.05,-19.18c0.6,-0.55 1.41,-0.82 2.22,-0.75l24.86,2.17l-0.7,3.2l-19.88,12.72c-2.13,1.36 -3.6,3.47 -4.14,5.93l-6.58,29.95l6.38,1.4l6.58,-29.95c0.17,-0.76 0.62,-1.41 1.28,-1.83l14.38,-9.2l-0.14,0.64c-1.21,5.52 2.29,11 7.81,12.21l15.32,3.37c5.52,1.21 11,-2.29 12.21,-7.81l0.14,-0.64l9.2,14.38c0.42,0.66 0.56,1.44 0.39,2.2l-6.58,29.95l6.38,1.4l6.58,-29.95c0.54,-2.47 0.09,-4.99 -1.27,-7.12l-12.72,-19.88l0.7,-3.2l23.48,8.45c0.76,0.28 1.38,0.86 1.7,1.61l11.07,26.23l6.02,-2.54l-11.06,-26.23zm-44.84,6.78l-15.32,-3.37c-2.01,-0.44 -3.28,-2.43 -2.84,-4.43l4.95,-22.51c0.44,-2.01 2.43,-3.28 4.43,-2.84l15.32,3.37c2.01,0.44 3.28,2.43 2.84,4.43l-4.95,22.52c-0.44,2.01 -2.43,3.27 -4.43,2.83z" fill="#000000" id="svg_15"/>
        <g id="svg_16">
          <defs fill="#000000" transform="translate(1 0) translate(1 0) translate(1 0) translate(1 0) translate(1 0) translate(1 0) translate(1 0) translate(1 0) translate(1 0) translate(1 0) translate(1 0) translate(1 0) translate(1 0) translate(1 0) translate(1 0) translate(1 0) translate(1 0) translate(1 0) translate(1 0) translate(1 0) translate(1 0) translate(1 0) translate(1 0) translate(1 0) translate(1 0) translate(1 0) translate(1 0) translate(1 0) translate(1 0) translate(1 0) translate(1 0) translate(1 0) translate(1 0) translate(1 0) translate(1 0) translate(1 0) translate(1 0) translate(1 0) translate(1 0) translate(1 0) translate(1 0) translate(1 0) translate(1 0) translate(1 0) translate(1 0) translate(1 0) translate(1 0) translate(1 0) translate(1 0) translate(1 0) translate(-3 0) translate(-3 0) translate(3 0) translate(-3 0) translate(-3 0) translate(-3 0) translate(-3 0) translate(-3 0) translate(-3 0) translate(-3 0) translate(6 0) translate(3 0) translate(3 0) translate(-3 0) translate(-3 0) translate(-3 0) translate(-3 0) translate(-3 0) translate(-3 0) translate(-3 0) translate(-3 0) translate(-3 0) translate(-3 0) translate(-3 0) translate(-3 0) translate(-3 0) translate(-3 0) translate(-0.0000038147 0) translate(-3 0) translate(-3 0) translate(-3 0) translate(-3 0) translate(-3 0) translate(-3 0) translate(-3 0) translate(-3 0) translate(-3 0) translate(-3 0) translate(-3 0) translate(-3 0) translate(-3 0) translate(-3 0) translate(-3 0) translate(-3 0) translate(-3 0) translate(-3 0) translate(-3 0) translate(-239 0) translate(-0.0899963 0) translate(0 1) translate(72 -9) translate(243 10)">
            <path id="SVGID_00000056407068111722837200000016730400918992952961_" d="m44.66,31.32l0,81.44l137.25,0l0,-81.44l-137.25,0zm82.84,78.44l-0.3,-0.01l0.5,-2.27c0.44,-2.01 -0.83,-3.99 -2.84,-4.43l-2.05,-0.45c0.64,-0.52 1.03,-1.28 1.03,-2.11l0,-4.36l2.42,0.53c2.56,0.56 4.67,2.04 6.1,4.02c-0.06,3.63 -1.86,7.01 -4.86,9.08z" fill="#000000"/>
          </defs>
          <clipPath id="SVGID_00000165224928864444862100000000478595552819524494_" fill="#000000" transform="translate(1 0) translate(1 0) translate(1 0) translate(1 0) translate(1 0) translate(1 0) translate(1 0) translate(1 0) translate(1 0) translate(1 0) translate(1 0) translate(1 0) translate(1 0) translate(1 0) translate(1 0) translate(1 0) translate(1 0) translate(1 0) translate(1 0) translate(1 0) translate(1 0) translate(1 0) translate(1 0) translate(1 0) translate(1 0) translate(1 0) translate(1 0) translate(1 0) translate(1 0) translate(1 0) translate(1 0) translate(1 0) translate(1 0) translate(1 0) translate(1 0) translate(1 0) translate(1 0) translate(1 0) translate(1 0) translate(1 0) translate(1 0) translate(1 0) translate(1 0) translate(1 0) translate(1 0) translate(1 0) translate(1 0) translate(1 0) translate(1 0) translate(1 0) translate(-3 0) translate(-3 0) translate(3 0) translate(-3 0) translate(-3 0) translate(-3 0) translate(-3 0) translate(-3 0) translate(-3 0) translate(-3 0) translate(6 0) translate(3 0) translate(3 0) translate(-3 0) translate(-3 0) translate(-3 0) translate(-3 0) translate(-3 0) translate(-3 0) translate(-3 0) translate(-3 0) translate(-3 0) translate(-3 0) translate(-3 0) translate(-3 0) translate(-3 0) translate(-3 0) translate(-0.0000038147 0) translate(-3 0) translate(-3 0) translate(-3 0) translate(-3 0) translate(-3 0) translate(-3 0) translate(-3 0) translate(-3 0) translate(-3 0) translate(-3 0) translate(-3 0) translate(-3 0) translate(-3 0) translate(-3 0) translate(-3 0) translate(-3 0) translate(-3 0) translate(-3 0) translate(-3 0) translate(-239 0) translate(-0.0899963 0) translate(0 1) translate(72 -9) translate(243 10)">
            <path id="svg_17" d="m44.66,31.32l0,81.44l137.25,0l0,-81.44l-137.25,0zm82.84,78.44l-0.3,-0.01l0.5,-2.27c0.44,-2.01 -0.83,-3.99 -2.84,-4.43l-2.05,-0.45c0.64,-0.52 1.03,-1.28 1.03,-2.11l0,-4.36l2.42,0.53c2.56,0.56 4.67,2.04 6.1,4.02c-0.06,3.63 -1.86,7.01 -4.86,9.08z" fill="#000000" transform="matrix(1, 0, 0, 1, 14.90999984741211, 2)"/>
          </clipPath>
          <path d="m189.48,64.96l-16.44,23.25c-0.47,0.66 -1.2,1.1 -2.01,1.21l-24.75,3.21l0,-3.28l16.69,-16.69c1.78,-1.79 2.77,-4.16 2.77,-6.68l0,-30.66l-6.53,0l0,30.66c0,0.78 -0.3,1.51 -0.85,2.06l-12.07,12.07l0,-0.66c0,-5.65 -4.6,-10.25 -10.25,-10.25l-15.68,0c-5.65,0 -10.25,4.6 -10.25,10.25l0,0.66l-12.08,-12.07c-0.55,-0.55 -0.85,-1.28 -0.85,-2.06l0,-30.66l-6.53,0l0,30.66c0,2.52 0.98,4.9 2.77,6.68l16.69,16.69l0,3.28l-24.75,-3.21c-0.81,-0.1 -1.54,-0.55 -2.01,-1.21l-16.45,-23.25l-5.33,3.77l16.44,23.25c1.52,2.15 3.89,3.58 6.5,3.91l25.59,3.32l0,3.28c0,5.65 4.6,10.25 10.25,10.25l15.68,0c5.65,0 10.25,-4.6 10.25,-10.25l0,-3.28l25.59,-3.32c2.61,-0.34 4.98,-1.77 6.5,-3.91l16.44,-23.25l-5.33,-3.77zm-49.72,37.54c0,2.05 -1.67,3.72 -3.72,3.72l-15.68,0c-2.05,0 -3.72,-1.67 -3.72,-3.72l0,-23.05c0,-2.05 1.67,-3.72 3.72,-3.72l15.68,0c2.05,0 3.72,1.67 3.72,3.72l0,23.05z" clip-path="url(#SVGID_00000165224928864444862100000000478595552819524494_)" fill="#000000" id="svg_18"/>
        </g>
      </g>
    </g>
  </g>
</svg>